<svg version="1.1" id="Layer_1" xmlns="http://www.w3.org/2000/svg" xmlns:xlink="http://www.w3.org/1999/xlink" x="0px" y="0px"
	 width="100%" viewBox="0 0 209 280" enable-background="new 0 0 209 280" xml:space="preserve">

<path fill="#76D6CC" opacity="1.000000" stroke="none" 
	d="
M108.006752,77.023949 
	C100.193420,86.589767 89.728683,93.085365 80.379074,100.871567 
	C77.517624,103.254539 74.604355,105.575279 70.955452,107.954910 
	C65.922440,106.846794 61.915054,106.941322 58.215752,109.889366 
	C55.727066,111.872650 55.261608,113.708748 57.834194,115.823486 
	C58.839272,116.649696 59.992573,117.295593 61.078369,118.023605 
	C57.934277,123.570221 54.790184,129.116821 51.116901,134.569519 
	C50.217976,132.245499 49.796291,130.022507 49.489243,127.783798 
	C48.836002,123.020973 46.736202,122.728340 42.664993,124.757378 
	C39.236343,126.466171 35.134773,126.770821 31.486809,128.118546 
	C29.900080,128.704773 28.219500,130.090714 27.438860,131.566818 
	C26.154015,133.996323 26.270311,137.484116 24.517483,139.273331 
	C21.986406,141.856964 21.686241,144.359909 22.359388,147.386871 
	C23.068602,150.576019 22.523064,153.003555 18.978420,153.590607 
	C18.623209,150.454025 18.301781,147.721558 17.991182,144.569519 
	C18.108307,142.998886 18.144085,141.836166 18.331842,140.698547 
	C20.124268,129.838364 26.775011,121.537155 33.154236,112.711166 
	C40.235111,105.966202 47.126926,99.505203 54.306091,92.867188 
	C58.744884,90.129898 62.896328,87.569626 67.369431,84.992691 
	C68.462791,84.651978 69.234497,84.327927 70.323265,83.943817 
	C71.761131,83.255745 72.881935,82.627716 74.359505,81.996719 
	C75.810493,81.662560 76.904732,81.331375 78.341637,80.927917 
	C79.790352,79.236794 80.896400,77.617943 82.411919,75.999191 
	C89.098152,75.772903 93.799217,70.675354 94.012787,63.639755 
	C94.382309,62.908234 94.701538,62.455547 95.408752,61.978703 
	C101.001480,60.615723 106.957115,60.444683 108.564888,53.566643 
	C108.686584,53.046043 109.413918,52.480423 109.981216,52.280586 
	C113.931526,50.889030 114.630669,47.587940 115.307419,44.020779 
	C115.889076,40.954853 117.052200,37.999233 117.971649,35.368069 
	C118.570908,37.159233 119.156738,38.577168 119.742569,39.995102 
	C119.807693,40.436810 119.872826,40.878517 119.758301,41.972198 
	C119.380165,46.080074 119.181686,49.535976 118.664139,53.140629 
	C117.354355,54.028584 115.633728,54.652390 115.495544,55.526386 
	C114.785545,60.017170 114.482277,64.572266 114.036957,69.104897 
	C114.022850,69.459740 113.864273,69.729721 112.906517,69.967865 
	C105.488350,69.113144 107.542526,73.550438 108.006752,77.023949 
z"/>
<path fill="#A0E0D2" opacity="1.000000" stroke="none" 
	d="
M54.018742,93.044212 
	C47.126926,99.505203 40.235111,105.966202 32.770721,112.636749 
	C28.789574,112.544899 25.380995,112.243492 21.972414,111.942085 
	C22.000937,111.775673 22.029459,111.609253 22.292534,111.058197 
	C22.716516,110.463158 22.864826,110.226921 22.972021,109.964874 
	C25.277895,106.518784 27.583767,103.072693 30.201965,99.167290 
	C30.724237,98.497017 30.881136,98.252083 30.984985,97.973175 
	C30.984985,97.973175 31.000614,98.000610 31.336624,98.062675 
	C36.651649,98.915627 36.910866,98.541588 35.961468,91.936096 
	C35.961468,91.936096 35.986080,91.995522 36.166893,91.848053 
	C36.554199,91.438461 36.760693,91.176338 36.967182,90.914223 
	C40.216866,86.886497 43.174114,82.573746 46.770500,78.883949 
	C58.021420,67.340805 69.513573,56.032768 81.349945,44.418839 
	C82.987381,44.487480 84.311646,45.249619 85.366264,44.975266 
	C91.409866,43.403065 97.483505,41.845222 103.346703,39.727985 
	C105.864601,38.818756 108.040108,36.723846 110.060112,34.834976 
	C110.586441,34.342812 110.377144,31.935228 109.770355,31.541950 
	C105.620758,28.852451 101.275154,26.465372 96.992729,23.980810 
	C97.025436,23.809721 97.058151,23.638632 97.327171,23.079445 
	C97.751678,22.485771 97.896400,22.253145 97.997643,21.993471 
	C98.033104,21.816416 98.068558,21.639360 98.340553,21.072018 
	C98.758621,20.481268 98.891930,20.252689 98.977028,19.995991 
	C98.977028,19.995991 98.991585,19.993078 99.389786,19.999796 
	C107.705498,21.104408 107.866814,20.986408 107.995789,14.002943 
	C108.000000,13.999938 108.005943,13.991360 108.214661,14.228761 
	C109.271660,15.313723 110.119942,16.161285 110.968216,17.008846 
	C111.279823,17.469017 111.591423,17.929188 111.767349,18.944847 
	C112.765472,21.326622 113.899277,23.152905 115.033081,24.979189 
	C115.033081,24.979189 114.997841,24.999870 115.093658,25.171816 
	C115.329979,25.585800 115.505455,25.799068 115.715904,25.983564 
	C115.767456,26.160007 115.819000,26.336452 116.041115,26.958138 
	C116.382668,27.616190 116.581825,27.798172 116.809158,27.949327 
	C116.858597,28.407415 116.908043,28.865501 116.704803,29.859856 
	C115.220924,33.219109 114.438644,36.366592 112.675835,38.805313 
	C106.984993,46.678192 100.933357,54.290268 95.020775,62.002861 
	C94.701538,62.455547 94.382309,62.908234 93.677368,63.729225 
	C89.524879,67.391586 85.758087,70.685646 81.643112,73.992950 
	C79.858253,74.999779 78.421585,75.993355 76.701889,77.126251 
	C75.597878,78.142479 74.776894,79.019394 73.634537,79.980164 
	C71.865623,81.035469 70.418091,82.006927 68.658401,82.989128 
	C67.930977,83.013161 67.515701,83.026443 66.775528,82.906410 
	C58.616180,82.505455 55.458611,85.114212 54.018742,93.044212 
z"/>
<path fill="#71D6CE" opacity="1.000000" stroke="none" 
	d="
M19.012201,153.994720 
	C22.523064,153.003555 23.068602,150.576019 22.359388,147.386871 
	C21.686241,144.359909 21.986406,141.856964 24.517483,139.273331 
	C26.270311,137.484116 26.154015,133.996323 27.438860,131.566818 
	C28.219500,130.090714 29.900080,128.704773 31.486809,128.118546 
	C35.134773,126.770821 39.236343,126.466171 42.664993,124.757378 
	C46.736202,122.728340 48.836002,123.020973 49.489243,127.783798 
	C49.796291,130.022507 50.217976,132.245499 50.787842,134.735977 
	C50.953220,135.443253 50.918461,135.890167 50.495872,136.799957 
	C46.866390,140.752304 47.469280,143.974335 50.785923,147.007599 
	C50.848442,147.443100 50.910961,147.878601 50.815212,148.871368 
	C51.102459,150.285980 51.547977,151.143356 51.993492,152.000717 
	C51.993492,152.000717 52.000458,151.998947 52.105522,152.182678 
	C52.367893,152.598663 52.553852,152.805069 52.768471,152.985641 
	C55.368366,158.056229 59.410465,161.449036 65.063995,163.881638 
	C65.905403,164.638123 66.456406,164.817947 67.007416,164.997772 
	C67.007416,164.997772 67.486816,165.136017 67.871994,165.511475 
	C70.180679,166.554550 72.104179,167.222168 74.342010,168.136230 
	C76.425903,168.589279 78.303139,168.496140 79.936180,169.082794 
	C81.740669,169.731018 83.321426,171.002060 84.965820,172.359253 
	C83.286964,174.466202 81.641937,176.215729 79.643326,178.131836 
	C65.384743,182.522415 51.634598,181.899857 37.832603,176.701096 
	C35.678638,175.037781 33.483246,173.885010 31.803478,172.213928 
	C29.331228,169.754486 27.453613,169.878876 25.617399,172.739609 
	C25.617399,172.739609 25.360357,172.714142 25.440617,172.235489 
	C24.073458,169.827759 22.626038,167.898682 21.178619,165.969604 
	C20.142298,163.858063 19.105976,161.746536 18.044411,158.904724 
	C18.350178,156.781204 18.681190,155.387955 19.012201,153.994720 
z"/>
<path fill="#175082" opacity="1.000000" stroke="none" 
	d="
M154.103668,161.047440 
	C155.414261,157.045807 156.649124,153.017426 158.049683,149.047531 
	C162.278595,137.060608 156.144531,125.722237 146.283691,119.699295 
	C145.992935,118.852081 146.003265,118.459839 146.383240,118.138489 
	C151.838837,119.490639 157.074280,120.359917 161.979324,122.139702 
	C171.913361,125.744225 178.241272,133.613724 184.049530,142.367920 
	C186.082047,150.483536 188.041809,158.244232 190.000626,166.002213 
	C189.999680,165.999496 190.005035,165.999298 189.808716,166.135071 
	C189.371033,166.482391 189.166473,166.724991 188.995392,167.380585 
	C188.430542,169.254883 188.180344,170.984909 187.253754,172.198517 
	C183.197128,177.511688 178.840454,182.596939 174.822739,187.937958 
	C173.520172,189.669556 172.919220,191.928925 171.997345,193.946884 
	C171.997345,193.946884 171.978271,194.005966 171.523941,193.994995 
	C168.841721,193.325943 164.921005,193.051529 164.670273,191.945312 
	C163.380646,186.255539 162.339127,180.328552 162.535797,174.529343 
	C162.773911,167.507812 162.064819,166.042938 154.980530,165.682068 
	C154.966263,164.942444 154.962585,164.519714 154.960297,163.767181 
	C154.675690,162.640732 154.389679,161.844086 154.103668,161.047440 
z"/>
<path fill="#2B689A" opacity="1.000000" stroke="none" 
	d="
M154.958908,164.096985 
	C154.962585,164.519714 154.966263,164.942444 154.832458,166.028259 
	C152.150284,172.944702 149.663986,179.222763 147.034988,185.440475 
	C145.812759,188.331146 144.313339,191.104630 142.605148,194.004959 
	C134.834442,201.358978 127.398140,208.639282 119.680229,216.099213 
	C115.196419,220.544937 110.963631,224.781418 106.798309,229.083237 
	C97.874718,238.299271 91.827866,248.563095 94.759018,262.064575 
	C94.349426,261.983795 94.186264,261.948120 93.942863,261.629578 
	C93.280418,260.877960 92.698227,260.409271 92.116035,259.940582 
	C92.116035,259.940582 92.043823,259.951385 92.046890,259.540344 
	C90.484619,255.755737 88.919273,252.382156 87.353928,249.008591 
	C85.282127,235.206223 86.632065,222.673050 96.910027,211.605148 
	C104.943886,202.953827 114.109100,196.050217 123.371231,188.974075 
	C132.568192,181.947723 140.954895,173.861267 149.710068,166.254837 
	C150.202560,165.826965 150.814575,165.536636 151.928009,164.991989 
	C153.309692,164.566788 154.134308,164.331894 154.958908,164.096985 
z"/>
<path fill="#2C699D" opacity="1.000000" stroke="none" 
	d="
M183.976776,142.012985 
	C178.241272,133.613724 171.913361,125.744225 161.979324,122.139702 
	C157.074280,120.359917 151.838837,119.490639 146.046112,118.059280 
	C141.934921,115.992050 138.508667,114.666771 134.928070,117.525063 
	C134.176056,117.545441 133.424042,117.565811 132.145172,117.342041 
	C131.087799,116.774643 130.557266,116.451393 130.158890,115.769821 
	C131.613541,114.937424 132.921753,114.116692 134.261490,114.061516 
	C137.039536,113.947098 138.040924,112.760719 137.973221,110.023140 
	C137.929764,108.264603 138.127258,105.215988 138.902802,104.977615 
	C140.752502,104.409050 143.008896,105.163528 143.936844,105.261169 
	C147.128708,103.969887 149.585144,102.976120 152.375427,101.871277 
	C155.957932,98.748116 159.059723,97.834084 163.135635,100.910721 
	C164.611755,102.024948 167.664383,101.050621 170.367767,101.098801 
	C172.460083,101.460732 174.182297,101.753166 175.904495,102.045609 
	C175.904495,102.045609 175.972076,102.053894 176.038635,102.388351 
	C177.058884,103.502815 178.012573,104.282814 179.001877,105.244781 
	C179.374954,105.571259 179.712433,105.715759 180.343170,106.026787 
	C181.493774,106.382797 182.351089,106.572281 183.208420,106.761765 
	C183.208420,106.761772 183.222580,106.808556 183.239990,107.060493 
	C183.664291,107.606895 184.071152,107.901352 184.478027,108.195816 
	C185.193481,108.656677 185.908936,109.117531 186.795578,110.162735 
	C187.247116,111.489166 187.527496,112.231239 187.530075,113.000168 
	C186.802078,113.470444 186.351852,113.913872 185.901642,114.357300 
	C186.588654,114.259209 187.275681,114.161118 188.171844,114.278580 
	C188.921112,115.328453 189.461227,116.162766 190.023529,117.333664 
	C190.703690,118.445717 191.361679,119.221184 192.040741,120.307625 
	C192.076111,121.032394 192.090378,121.446198 192.081879,122.297981 
	C191.944138,126.149078 191.834030,129.562363 191.712830,132.975250 
	C191.596786,136.243057 191.469269,139.510437 191.346802,142.778015 
	C188.890121,142.523010 186.433456,142.267990 183.976776,142.012985 
z"/>
<path fill="#165083" opacity="1.000000" stroke="none" 
	d="
M95.005447,262.109619 
	C91.827866,248.563095 97.874718,238.299271 106.798309,229.083237 
	C110.963631,224.781418 115.196419,220.544937 119.888664,216.402466 
	C125.310753,217.701309 128.537674,222.992294 134.345047,222.249374 
	C135.146118,222.146896 136.126923,223.449448 136.889679,224.287292 
	C136.558838,224.712769 136.330048,224.915482 135.843414,224.918716 
	C135.094452,225.513397 134.570557,226.270554 134.031128,227.021301 
	C134.015594,227.014893 134.027084,227.046432 133.622925,227.035400 
	C130.269455,226.745209 128.681610,227.871017 129.060760,231.033752 
	C129.047272,231.026932 129.039505,231.056076 128.742828,231.182800 
	C127.878105,232.854858 127.310043,234.400177 126.783218,236.191193 
	C126.824455,236.436890 126.939743,236.921600 126.939743,236.921600 
	C126.439964,237.517960 125.940186,238.114319 124.845337,238.900513 
	C123.453873,240.313843 122.657494,241.537338 121.861099,242.760818 
	C121.861099,242.760818 121.777672,242.874390 121.567520,243.048035 
	C121.171051,243.437698 121.061432,243.687424 120.964066,244.154984 
	C120.899635,244.339142 120.840530,244.724854 120.840530,244.724854 
	C120.840530,244.724854 120.830399,244.811798 120.481743,244.933075 
	C119.022919,246.585159 117.912750,248.115982 116.802582,249.646805 
	C116.802582,249.646805 116.692024,249.794296 116.500374,249.990723 
	C116.147003,250.379395 116.019783,250.592285 115.927071,250.825806 
	C115.927071,250.825806 115.903198,250.892502 115.542717,250.990814 
	C114.257797,252.820786 113.333359,254.552460 112.408920,256.284119 
	C112.408920,256.284119 112.328979,256.307220 112.023056,256.421082 
	C111.465599,257.341492 111.214073,258.148041 110.962547,258.954559 
	C110.962547,258.954559 110.997574,259.001038 110.634567,259.064362 
	C108.201485,262.755066 106.185745,266.415131 104.034477,269.993713 
	C103.176735,271.420563 102.019432,272.667358 100.998505,273.996124 
	C100.699875,273.837646 100.454643,273.619202 100.055229,272.930237 
	C99.694618,272.275909 99.495560,272.078552 99.250496,271.927643 
	C99.250496,271.927643 99.167336,271.886932 99.148422,271.511719 
	C100.871223,266.703766 95.666473,265.444611 95.005447,262.109619 
z"/>
<path fill="#175286" opacity="1.000000" stroke="none" 
	d="
M137.024521,224.101532 
	C136.126923,223.449448 135.146118,222.146896 134.345047,222.249374 
	C128.537674,222.992294 125.310753,217.701309 120.170273,216.222839 
	C127.398140,208.639282 134.834442,201.358978 142.788971,194.301117 
	C145.762909,198.470047 148.853241,199.401138 153.327148,197.546875 
	C156.972366,196.036041 160.523102,196.668579 161.868622,201.372284 
	C159.831375,203.261780 157.940002,204.830765 156.251266,206.593842 
	C152.409805,210.604416 148.667816,214.710327 144.885406,218.777481 
	C144.885406,218.777481 144.822052,218.870102 144.611115,218.982758 
	C144.199539,219.244339 144.037552,219.427475 143.914215,219.644791 
	C142.767319,220.959930 141.620422,222.275070 139.837006,223.775375 
	C138.475159,224.007538 137.749847,224.054535 137.024521,224.101532 
z"/>
<path fill="#144E81" opacity="1.000000" stroke="none" 
	d="
M162.106491,201.139908 
	C160.523102,196.668579 156.972366,196.036041 153.327148,197.546875 
	C148.853241,199.401138 145.762909,198.470047 143.123383,194.227386 
	C144.313339,191.104630 145.812759,188.331146 147.034988,185.440475 
	C149.663986,179.222763 152.150284,172.944702 154.843048,166.345154 
	C162.064819,166.042938 162.773911,167.507812 162.535797,174.529343 
	C162.339127,180.328552 163.380646,186.255539 164.670273,191.945312 
	C164.921005,193.051529 168.841721,193.325943 171.498795,193.976791 
	C170.134399,195.871811 168.340820,197.774078 165.983734,199.781006 
	C165.243896,199.869446 165.067535,199.853210 164.780289,199.763962 
	C164.378479,199.644196 164.158981,199.757874 164.050507,200.332520 
	C164.145905,200.827255 164.201721,201.021469 164.257553,201.215668 
	C164.257553,201.215668 164.153519,201.118011 163.835358,201.121613 
	C163.046967,201.130096 162.576736,201.135010 162.106491,201.139908 
z"/>
<path fill="#56BABF" opacity="1.000000" stroke="none" 
	d="
M38.021759,176.979858 
	C51.634598,181.899857 65.384743,182.522415 80.052551,178.137970 
	C85.520828,177.644806 90.226295,177.312088 94.931763,176.979370 
	C85.202423,182.906860 75.164574,187.246887 63.396099,188.199875 
	C50.252506,189.264236 39.024971,186.354416 29.473373,177.402100 
	C32.487194,177.086441 35.254478,177.033142 38.021759,176.979858 
z"/>
<path fill="#9EDCCD" opacity="1.000000" stroke="none" 
	d="
M96.662735,24.099390 
	C101.275154,26.465372 105.620758,28.852451 109.770355,31.541950 
	C110.377144,31.935228 110.586441,34.342812 110.060112,34.834976 
	C108.040108,36.723846 105.864601,38.818756 103.346703,39.727985 
	C97.483505,41.845222 91.409866,43.403065 85.366264,44.975266 
	C84.311646,45.249619 82.987381,44.487480 81.487747,44.104958 
	C86.236145,37.409897 91.284447,30.813934 96.662735,24.099390 
z"/>
<path fill="#316CA0" opacity="1.000000" stroke="none" 
	d="
M152.041595,101.982346 
	C149.585144,102.976120 147.128708,103.969887 143.936844,105.261169 
	C143.008896,105.163528 140.752502,104.409050 138.902802,104.977615 
	C138.127258,105.215988 137.929764,108.264603 137.973221,110.023140 
	C138.040924,112.760719 137.039536,113.947098 134.261490,114.061516 
	C132.921753,114.116692 131.613541,114.937424 129.890533,115.902451 
	C128.109039,116.869438 126.649925,117.192436 125.361801,117.850273 
	C121.527237,119.808548 117.759880,121.898407 113.966255,123.936852 
	C113.966255,123.936852 114.002769,123.988235 113.698524,124.002991 
	C112.922546,124.278465 112.450813,124.539192 111.979073,124.799911 
	C111.494125,125.142761 111.009186,125.485611 109.874176,125.877533 
	C107.499718,125.960075 105.775345,125.993568 103.850807,125.887985 
	C103.396156,125.542641 103.177078,125.303886 102.996178,124.681549 
	C102.985161,123.862976 102.971390,123.395470 102.957611,122.927971 
	C103.051788,122.598877 103.242958,122.341949 104.125946,122.064453 
	C106.745377,120.903473 108.884445,120.005554 110.773598,118.735794 
	C116.995499,114.553932 121.440094,107.007225 130.582687,108.427361 
	C130.712204,108.447487 130.886383,108.301628 131.013138,108.200043 
	C134.345886,105.529022 137.675110,102.853600 141.004944,100.178940 
	C141.439789,100.112221 141.874649,100.045509 142.794098,100.189972 
	C144.733963,100.255028 146.255249,100.327667 147.629486,99.913017 
	C149.853317,99.242004 151.551971,99.184013 152.041595,101.982346 
z"/>
<path fill="#6DD3CF" opacity="1.000000" stroke="none" 
	d="
M94.965225,176.979614 
	C90.226295,177.312088 85.520828,177.644806 80.406128,177.971405 
	C81.641937,176.215729 83.286964,174.466202 85.306923,172.281799 
	C86.460457,170.555191 87.239075,169.263474 88.218552,167.769897 
	C88.611526,167.043884 88.803642,166.519730 88.995758,165.995575 
	C88.995766,165.995575 89.000000,166.000000 89.280243,165.987244 
	C90.050026,165.706314 90.539566,165.438141 91.029114,165.169983 
	C91.776253,165.135895 92.523384,165.101807 93.921326,165.062271 
	C95.054497,164.813889 95.536865,164.570969 96.019226,164.328033 
	C96.462288,164.280304 96.905357,164.232574 97.867432,164.324677 
	C100.934464,164.531219 103.944656,165.787003 104.959702,161.909637 
	C109.099976,160.584442 113.240257,159.259247 117.380539,157.934036 
	C117.594460,158.487289 117.808372,159.040527 118.022293,159.593781 
	C111.600189,164.704300 105.178093,169.814819 98.090042,175.013763 
	C96.613312,175.705887 95.802513,176.309616 94.991714,176.913345 
	C94.991714,176.913345 94.998688,176.979874 94.965225,176.979614 
z"/>
<path fill="#2B6497" opacity="1.000000" stroke="none" 
	d="
M184.049530,142.367920 
	C186.433456,142.267990 188.890121,142.523010 191.346802,142.778015 
	C191.469269,139.510437 191.596786,136.243057 191.712830,132.975250 
	C191.834030,129.562363 191.944138,126.149078 192.346298,122.508713 
	C193.977936,124.218102 195.322388,126.154755 196.666840,128.091400 
	C196.716034,128.521896 196.765228,128.952393 196.635132,130.007202 
	C196.517654,131.930649 196.578552,133.229828 196.641388,134.528931 
	C197.176895,145.600815 196.750778,156.469772 190.001572,166.004929 
	C188.041809,158.244232 186.082047,150.483536 184.049530,142.367920 
z"/>
<path fill="#9DDDD3" opacity="1.000000" stroke="none" 
	d="
M21.638485,112.091827 
	C25.380995,112.243492 28.789574,112.544899 32.581665,112.920715 
	C26.775011,121.537155 20.124268,129.838364 18.331842,140.698547 
	C18.144085,141.836166 18.108307,142.998886 17.686844,144.573456 
	C16.965389,144.994370 16.559103,144.991776 16.152817,144.989182 
	C15.733380,133.737167 15.598553,122.529938 21.638485,112.091827 
z"/>
<path fill="#7AD4C9" opacity="1.000000" stroke="none" 
	d="
M95.408752,61.978703 
	C100.933357,54.290268 106.984993,46.678192 112.675835,38.805313 
	C114.438644,36.366592 115.220924,33.219109 116.759521,30.201883 
	C117.697929,31.429478 118.328941,32.851311 118.673180,34.630608 
	C118.386406,34.988068 117.958206,34.994835 117.958206,34.994835 
	C117.052200,37.999233 115.889076,40.954853 115.307419,44.020779 
	C114.630669,47.587940 113.931526,50.889030 109.981216,52.280586 
	C109.413918,52.480423 108.686584,53.046043 108.564888,53.566643 
	C106.957115,60.444683 101.001480,60.615723 95.408752,61.978703 
z"/>
<path fill="#1F4871" opacity="1.000000" stroke="none" 
	d="
M190.000626,166.002213 
	C196.750778,156.469772 197.176895,145.600815 196.641388,134.528931 
	C196.578552,133.229828 196.517654,131.930649 196.672607,130.330246 
	C200.929504,139.227081 198.681503,148.374603 196.146454,157.291565 
	C192.039307,171.738403 183.520065,183.517029 172.284454,193.785950 
	C172.919220,191.928925 173.520172,189.669556 174.822739,187.937958 
	C178.840454,182.596939 183.197128,177.511688 187.253754,172.198517 
	C188.180344,170.984909 188.430542,169.254883 189.195282,167.248474 
	C189.652435,166.532074 189.854614,166.287033 190.005035,165.999298 
	C190.005035,165.999298 189.999680,165.999496 190.000626,166.002213 
z"/>
<path fill="#2D6186" opacity="1.000000" stroke="none" 
	d="
M140.606537,100.115448 
	C137.675110,102.853600 134.345886,105.529022 131.013138,108.200043 
	C130.886383,108.301628 130.712204,108.447487 130.582687,108.427361 
	C121.440094,107.007225 116.995499,114.553932 110.773598,118.735794 
	C108.884445,120.005554 106.745377,120.903473 104.354645,121.978210 
	C110.998932,114.568253 118.621017,108.054970 128.511612,104.677887 
	C132.474884,103.324646 136.313019,101.604889 140.606537,100.115448 
z"/>
<path fill="#6ED9C7" opacity="1.000000" stroke="none" 
	d="
M61.388256,117.902344 
	C59.992573,117.295593 58.839272,116.649696 57.834194,115.823486 
	C55.261608,113.708748 55.727066,111.872650 58.215752,109.889366 
	C61.915054,106.941322 65.922440,106.846794 70.605286,107.993942 
	C67.909042,111.262085 64.803589,114.521584 61.388256,117.902344 
z"/>
<path fill="#9EDCCD" opacity="1.000000" stroke="none" 
	d="
M107.991577,14.005947 
	C107.866814,20.986408 107.705498,21.104408 99.389671,19.992363 
	C100.602081,16.896492 102.050568,13.708285 103.949188,10.815516 
	C104.370499,10.173594 107.014122,10.012353 107.536156,10.602074 
	C108.968307,12.219933 109.816277,14.354913 110.931847,16.647026 
	C110.119942,16.161285 109.271660,15.313723 108.175842,14.162521 
	C107.928314,13.858882 107.752487,13.848400 107.752487,13.848400 
	C107.752487,13.848400 107.991577,14.005947 107.991577,14.005947 
z"/>
<path fill="#2C638B" opacity="1.000000" stroke="none" 
	d="
M152.375427,101.871284 
	C151.551971,99.184013 149.853317,99.242004 147.629486,99.913017 
	C146.255249,100.327667 144.733963,100.255028 143.122314,100.150894 
	C144.987061,99.302780 146.989197,98.280983 149.033020,98.189362 
	C154.406448,97.948494 159.798035,98.112419 165.778656,98.410751 
	C167.582504,99.480721 168.790085,100.255013 169.997650,101.029305 
	C167.664383,101.050621 164.611755,102.024948 163.135635,100.910721 
	C159.059723,97.834084 155.957932,98.748116 152.375427,101.871284 
z"/>
<path fill="#173C60" opacity="1.000000" stroke="none" 
	d="
M161.868622,201.372284 
	C162.576736,201.135010 163.046967,201.130096 163.869202,201.184418 
	C158.009552,207.097733 151.797913,212.951813 145.235840,218.791687 
	C148.667816,214.710327 152.409805,210.604416 156.251266,206.593842 
	C157.940002,204.830765 159.831375,203.261780 161.868622,201.372284 
z"/>
<path fill="#5EC5C2" opacity="1.000000" stroke="none" 
	d="
M37.832603,176.701096 
	C35.254478,177.033142 32.487194,177.086441 29.349779,177.083588 
	C28.979645,177.027451 28.998056,177.002731 28.854389,176.814819 
	C28.505766,176.379440 28.259926,176.183151 27.973206,176.038071 
	C27.973206,176.038071 27.995813,176.004959 27.886572,175.825745 
	C27.621178,175.407242 27.432077,175.197678 27.210026,175.017853 
	C26.785805,174.412064 26.361584,173.806259 25.777380,172.970032 
	C27.453613,169.878876 29.331228,169.754486 31.803478,172.213928 
	C33.483246,173.885010 35.678638,175.037781 37.832603,176.701096 
z"/>
<path fill="#7AD4C9" opacity="1.000000" stroke="none" 
	d="
M114.356026,68.948059 
	C114.482277,64.572266 114.785545,60.017170 115.495544,55.526386 
	C115.633728,54.652390 117.354355,54.028584 118.656754,53.483414 
	C119.013268,55.132618 119.058105,56.587780 119.102943,58.042942 
	C119.056839,58.481564 119.010735,58.920185 118.737228,59.843979 
	C118.294052,60.551609 118.141571,60.811234 118.052368,61.108017 
	C116.926613,63.669086 115.800858,66.230156 114.356026,68.948059 
z"/>
<path fill="#163E5B" opacity="1.000000" stroke="none" 
	d="
M101.015602,274.352997 
	C102.019432,272.667358 103.176735,271.420563 104.034477,269.993713 
	C106.185745,266.415131 108.201485,262.755066 110.610336,259.048035 
	C108.324852,265.379303 105.700607,271.790253 103.076363,278.201172 
	C102.710388,278.239258 102.344406,278.277313 101.978424,278.315399 
	C101.663185,277.113556 101.347946,275.911713 101.015602,274.352997 
z"/>
<path fill="#255980" opacity="1.000000" stroke="none" 
	d="
M114.343414,123.923828 
	C117.759880,121.898407 121.527237,119.808548 125.361801,117.850273 
	C126.649925,117.192436 128.109039,116.869438 129.758362,116.260773 
	C130.557266,116.451393 131.087799,116.774643 131.774261,117.272232 
	C126.193665,119.601318 120.457115,121.756058 114.343414,123.923828 
z"/>
<path fill="#91D7CD" opacity="1.000000" stroke="none" 
	d="
M16.067526,145.384308 
	C16.559103,144.991776 16.965389,144.994370 17.676014,144.993027 
	C18.301781,147.721558 18.623209,150.454025 18.978420,153.590607 
	C18.681190,155.387955 18.350178,156.781204 18.040668,158.538895 
	C16.051104,154.737564 14.197421,150.546829 16.067526,145.384308 
z"/>
<path fill="#173C60" opacity="1.000000" stroke="none" 
	d="
M136.889679,224.287292 
	C137.749847,224.054535 138.475159,224.007538 139.563599,223.957062 
	C136.305435,227.675461 132.684143,231.397308 128.627090,235.144043 
	C128.191330,235.168930 127.896591,234.917557 127.992897,234.595306 
	C128.405960,233.200729 128.722733,232.128403 129.039505,231.056076 
	C129.039505,231.056076 129.047272,231.026932 129.386917,230.986176 
	C131.160065,229.645767 132.593582,228.346100 134.027100,227.046448 
	C134.027084,227.046432 134.015594,227.014893 134.282318,226.886444 
	C135.055511,226.199066 135.561996,225.640121 136.068466,225.081177 
	C136.330048,224.915482 136.558838,224.712769 136.889679,224.287292 
z"/>
<path fill="#7AD3D2" opacity="1.000000" stroke="none" 
	d="
M88.017693,167.971756 
	C87.239075,169.263474 86.460457,170.555191 85.340744,171.924377 
	C83.321426,171.002060 81.740669,169.731018 79.936180,169.082794 
	C78.303139,168.496140 76.425903,168.589279 74.734070,168.153549 
	C76.876480,167.356705 78.941170,166.788971 81.005859,166.221252 
	C81.745628,166.160553 82.485405,166.099869 83.740356,166.403046 
	C85.509590,167.168533 86.763641,167.570145 88.017693,167.971756 
z"/>
<path fill="#2E73A0" opacity="1.000000" stroke="none" 
	d="
M102.993423,125.032623 
	C103.177078,125.303886 103.396156,125.542641 103.710419,126.211807 
	C103.533272,127.816635 103.296356,128.958557 103.059433,130.100479 
	C101.929474,131.061417 100.799522,132.022354 99.048210,132.932388 
	C97.936470,132.580750 97.446098,132.280029 96.955719,131.979309 
	C97.325974,131.179138 97.696228,130.378983 98.330482,129.057770 
	C98.725151,128.036423 98.855827,127.536118 98.986504,127.035812 
	C98.986504,127.035812 98.971344,126.987999 99.327934,126.977562 
	C100.787491,126.322296 101.890457,125.677460 102.993423,125.032623 
z"/>
<path fill="#7AC2B9" opacity="1.000000" stroke="none" 
	d="
M119.450996,57.836472 
	C119.058105,56.587780 119.013268,55.132618 118.975815,53.334671 
	C119.181686,49.535976 119.380165,46.080074 119.829575,42.300392 
	C119.986694,47.194412 119.892876,52.412209 119.450996,57.836472 
z"/>
<path fill="#7AD4C9" opacity="1.000000" stroke="none" 
	d="
M108.326714,76.894211 
	C107.542526,73.550438 105.488350,69.113144 112.671021,70.028168 
	C111.609032,72.278465 110.127853,74.521469 108.326714,76.894211 
z"/>
<path fill="#163E5B" opacity="1.000000" stroke="none" 
	d="
M94.759018,262.064575 
	C95.666473,265.444611 100.871223,266.703766 99.130028,271.469238 
	C97.116776,268.771790 95.102989,265.741608 93.291199,262.338898 
	C93.669838,261.948395 93.846474,261.930450 94.023109,261.912476 
	C94.186264,261.948120 94.349426,261.983795 94.759018,262.064575 
z"/>
<path fill="#255980" opacity="1.000000" stroke="none" 
	d="
M135.347778,117.631577 
	C138.508667,114.666771 141.934921,115.992050 145.676453,117.988388 
	C146.003265,118.459839 145.992935,118.852081 145.973297,119.539062 
	C142.565140,119.135239 139.166321,118.436661 135.347778,117.631577 
z"/>
<path fill="#A4D4CA" opacity="1.000000" stroke="none" 
	d="
M35.646088,92.059387 
	C36.910866,98.541588 36.651649,98.915627 31.324295,98.052841 
	C32.427540,96.048187 33.879124,94.115440 35.646088,92.059387 
z"/>
<path fill="#67BBB7" opacity="1.000000" stroke="none" 
	d="
M80.559937,166.130463 
	C78.941170,166.788971 76.876480,167.356705 74.419731,167.907104 
	C72.104179,167.222168 70.180679,166.554550 68.112350,165.578278 
	C72.016365,165.526306 76.065186,165.782990 80.559937,166.130463 
z"/>
<path fill="#1F4871" opacity="1.000000" stroke="none" 
	d="
M196.730377,127.722015 
	C195.322388,126.154755 193.977936,124.218102 192.369080,122.070724 
	C192.090378,121.446198 192.076111,121.032394 192.025787,119.979462 
	C191.842194,118.708763 191.694641,118.077187 191.640671,117.353653 
	C191.734268,117.261688 191.920990,117.077301 191.920990,117.077301 
	C193.545288,120.502411 195.169601,123.927528 196.730377,127.722015 
z"/>
<path fill="#76D6CC" opacity="1.000000" stroke="none" 
	d="
M50.862942,146.610413 
	C47.469280,143.974335 46.866390,140.752304 50.425537,137.128799 
	C50.808674,140.067596 50.874317,143.140396 50.862942,146.610413 
z"/>
<path fill="#165083" opacity="1.000000" stroke="none" 
	d="
M87.285957,249.368134 
	C88.919273,252.382156 90.484619,255.755737 92.060181,259.506348 
	C90.452927,256.498138 88.835457,253.112900 87.285957,249.368134 
z"/>
<path fill="#255980" opacity="1.000000" stroke="none" 
	d="
M103.404663,130.049988 
	C103.296356,128.958557 103.533272,127.816635 103.910583,126.350891 
	C105.775345,125.993568 107.499718,125.960075 109.564392,125.940269 
	C107.853081,127.302460 105.801483,128.650970 103.404663,130.049988 
z"/>
<path fill="#1F4871" opacity="1.000000" stroke="none" 
	d="
M187.807861,112.973320 
	C187.527496,112.231239 187.247116,111.489166 186.942841,110.450897 
	C188.548431,112.231232 190.177902,114.307739 191.864197,116.730774 
	C191.920990,117.077301 191.734268,117.261688 191.396973,117.240334 
	C190.706894,117.145012 190.354126,117.071045 190.001358,116.997078 
	C189.461227,116.162766 188.921112,115.328453 188.146973,114.003967 
	C187.877914,113.333641 187.842880,113.153481 187.807861,112.973320 
z"/>
<path fill="#5EC5C2" opacity="1.000000" stroke="none" 
	d="
M21.140736,166.317795 
	C22.626038,167.898682 24.073458,169.827759 25.402287,172.112152 
	C23.890081,170.533646 22.496468,168.599808 21.140736,166.317795 
z"/>
<path fill="#1F4871" opacity="1.000000" stroke="none" 
	d="
M170.367767,101.098801 
	C168.790085,100.255013 167.582504,99.480721 166.198578,98.456512 
	C169.210114,99.275635 172.398041,100.344666 175.745224,101.729645 
	C174.182297,101.753166 172.460083,101.460732 170.367767,101.098801 
z"/>
<path fill="#9EDCCD" opacity="1.000000" stroke="none" 
	d="
M114.996475,24.616325 
	C113.899277,23.152905 112.765472,21.326622 111.807091,19.253712 
	C112.974968,20.755878 113.967422,22.504669 114.996475,24.616325 
z"/>
<path fill="#62ADAE" opacity="1.000000" stroke="none" 
	d="
M104.568626,161.954712 
	C103.944656,165.787003 100.934464,164.531219 98.194000,164.251251 
	C100.060211,163.358566 102.118881,162.679169 104.568626,161.954712 
z"/>
<path fill="#1F4871" opacity="1.000000" stroke="none" 
	d="
M183.115173,106.438560 
	C182.351089,106.572281 181.493774,106.382797 180.188324,105.861603 
	C179.509949,105.328255 179.251968,105.172562 178.966263,105.062813 
	C178.012573,104.282814 177.058884,103.502815 176.031235,102.421585 
	C178.312149,103.452026 180.667038,104.783691 183.115173,106.438560 
z"/>
<path fill="#163E5B" opacity="1.000000" stroke="none" 
	d="
M112.696884,256.145569 
	C113.333359,254.552460 114.257797,252.820786 115.508179,250.998596 
	C114.884361,252.607727 113.934608,254.307388 112.696884,256.145569 
z"/>
<path fill="#62ADAE" opacity="1.000000" stroke="none" 
	d="
M88.218552,167.769897 
	C86.763641,167.570145 85.509590,167.168533 84.107758,166.464233 
	C85.358116,166.108200 86.756264,166.054871 88.575081,165.998566 
	C88.803642,166.519730 88.611526,167.043884 88.218552,167.769897 
z"/>
<path fill="#7AC2B9" opacity="1.000000" stroke="none" 
	d="
M117.971642,35.368069 
	C117.958206,34.994835 118.386406,34.988068 118.600525,34.987984 
	C119.186348,36.408226 119.558052,37.828545 119.836166,39.621983 
	C119.156738,38.577168 118.570908,37.159233 117.971642,35.368069 
z"/>
<path fill="#163E5B" opacity="1.000000" stroke="none" 
	d="
M117.133987,249.635406 
	C117.912750,248.115982 119.022919,246.585159 120.447487,244.960312 
	C119.663055,246.452179 118.564232,248.038086 117.133987,249.635406 
z"/>
<path fill="#2D6186" opacity="1.000000" stroke="none" 
	d="
M102.996185,124.681549 
	C101.890457,125.677460 100.787491,126.322296 99.352875,126.974899 
	C100.132385,125.707054 101.243553,124.431442 102.656166,123.041901 
	C102.971390,123.395470 102.985161,123.862976 102.996185,124.681549 
z"/>
<path fill="#3E7292" opacity="1.000000" stroke="none" 
	d="
M96.663101,132.114212 
	C97.446098,132.280029 97.936470,132.580750 98.712936,132.940872 
	C97.896248,133.940262 96.793472,134.880264 95.690704,135.820267 
	C95.484344,135.626205 95.277985,135.432159 95.071625,135.238113 
	C95.504578,134.241776 95.937531,133.245453 96.663101,132.114212 
z"/>
<path fill="#173C60" opacity="1.000000" stroke="none" 
	d="
M122.185257,242.698471 
	C122.657494,241.537338 123.453873,240.313843 124.585861,239.039917 
	C124.117439,240.205017 123.313423,241.420563 122.185257,242.698471 
z"/>
<path fill="#144E81" opacity="1.000000" stroke="none" 
	d="
M154.960297,163.767197 
	C154.134308,164.331894 153.309692,164.566788 152.257721,164.898041 
	C152.513321,163.770615 152.996292,162.546844 153.791473,161.185242 
	C154.389679,161.844086 154.675690,162.640732 154.960297,163.767197 
z"/>
<path fill="#76D6CC" opacity="1.000000" stroke="none" 
	d="
M51.949245,151.656143 
	C51.547977,151.143356 51.102459,150.285980 50.852005,149.200836 
	C51.333046,149.752563 51.619022,150.532059 51.949245,151.656143 
z"/>
<path fill="#165083" opacity="1.000000" stroke="none" 
	d="
M93.942863,261.629578 
	C93.846474,261.930450 93.669838,261.948395 93.227798,261.989746 
	C92.691849,261.517761 92.421295,261.022430 92.133392,260.233826 
	C92.698227,260.409271 93.280418,260.877960 93.942863,261.629578 
z"/>
<path fill="#56BABF" opacity="1.000000" stroke="none" 
	d="
M95.323837,176.922180 
	C95.802513,176.309616 96.613312,175.705887 97.740784,175.074951 
	C97.256958,175.675491 96.456451,176.303253 95.323837,176.922180 
z"/>
<path fill="#163E5B" opacity="1.000000" stroke="none" 
	d="
M111.218231,258.770874 
	C111.214073,258.148041 111.465599,257.341492 112.008408,256.382141 
	C112.024429,257.015289 111.749176,257.801270 111.218231,258.770874 
z"/>
<path fill="#173C60" opacity="1.000000" stroke="none" 
	d="
M127.194305,236.814880 
	C126.939743,236.921600 126.824455,236.436890 126.963745,236.004776 
	C127.367554,235.354294 127.632072,235.135925 127.896591,234.917557 
	C127.896591,234.917557 128.191330,235.168930 128.336578,235.302429 
	C128.137512,235.860001 127.793198,236.284073 127.194305,236.814880 
z"/>
<path fill="#255980" opacity="1.000000" stroke="none" 
	d="
M112.281082,124.820175 
	C112.450813,124.539192 112.922546,124.278465 113.669373,123.991043 
	C113.490669,124.256378 113.036880,124.548401 112.281082,124.820175 
z"/>
<path fill="#2D6186" opacity="1.000000" stroke="none" 
	d="
M98.731247,127.166069 
	C98.855827,127.536118 98.725151,128.036423 98.424744,128.735840 
	C98.328667,128.388733 98.402328,127.842529 98.731247,127.166069 
z"/>
<path fill="#67BBB7" opacity="1.000000" stroke="none" 
	d="
M66.906708,164.700241 
	C66.456406,164.817947 65.905403,164.638123 65.179611,164.220856 
	C65.605209,164.123199 66.205605,164.262955 66.906708,164.700241 
z"/>
<path fill="#62ADAE" opacity="1.000000" stroke="none" 
	d="
M95.729034,164.221771 
	C95.536865,164.570969 95.054497,164.813889 94.294655,165.031555 
	C94.491066,164.709351 94.964958,164.412430 95.729034,164.221771 
z"/>
<path fill="#173C60" opacity="1.000000" stroke="none" 
	d="
M164.891174,199.836960 
	C165.067535,199.853210 165.243896,199.869446 165.682953,199.924500 
	C165.556229,200.328979 165.166824,200.694611 164.517487,201.137955 
	C164.201721,201.021469 164.145905,200.827255 164.271271,200.287048 
	C164.452469,199.941071 164.891174,199.836960 164.891174,199.836960 
z"/>
<path fill="#62ADAE" opacity="1.000000" stroke="none" 
	d="
M90.719559,165.090515 
	C90.539566,165.438141 90.050026,165.706314 89.278168,165.985016 
	C89.467247,165.667374 89.938629,165.339203 90.719559,165.090515 
z"/>
<path fill="#1F4871" opacity="1.000000" stroke="none" 
	d="
M184.431488,107.940903 
	C184.071152,107.901352 183.664291,107.606895 183.217850,107.050400 
	C183.580505,107.087578 183.982727,107.386787 184.431488,107.940903 
z"/>
<path fill="#163E5B" opacity="1.000000" stroke="none" 
	d="
M116.113693,250.741394 
	C116.019783,250.592285 116.147003,250.379395 116.435173,250.055862 
	C116.626404,250.222885 116.539307,250.467010 116.113693,250.741394 
z"/>
<path fill="#163E5B" opacity="1.000000" stroke="none" 
	d="
M121.034248,244.694672 
	C120.840530,244.724854 120.899635,244.339142 121.092033,244.161743 
	C121.284431,243.984360 121.541237,243.997330 121.541237,243.997330 
	C121.595329,244.294174 121.490906,244.516556 121.034248,244.694672 
z"/>
<path fill="#A4D4CA" opacity="1.000000" stroke="none" 
	d="
M30.727901,98.032990 
	C30.881136,98.252083 30.724237,98.497017 30.351070,98.855103 
	C30.282171,98.699089 30.376493,98.395943 30.727901,98.032990 
z"/>
<path fill="#163E5B" opacity="1.000000" stroke="none" 
	d="
M99.312256,272.137329 
	C99.495560,272.078552 99.694618,272.275909 99.940224,272.710358 
	C99.745537,272.796783 99.525948,272.612122 99.312256,272.137329 
z"/>
<path fill="#A4D4CA" opacity="1.000000" stroke="none" 
	d="
M36.712669,90.997986 
	C36.760693,91.176338 36.554199,91.438461 36.136299,91.838150 
	C36.102642,91.677734 36.280403,91.379738 36.712669,90.997986 
z"/>
<path fill="#9DDDD3" opacity="1.000000" stroke="none" 
	d="
M22.725937,110.029205 
	C22.864826,110.226921 22.716516,110.463158 22.375404,110.818871 
	C22.309099,110.673965 22.394476,110.383751 22.725937,110.029205 
z"/>
<path fill="#173C60" opacity="1.000000" stroke="none" 
	d="
M121.593948,243.734955 
	C121.541237,243.997330 121.284431,243.984360 121.156464,243.977600 
	C121.061432,243.687424 121.171051,243.437698 121.504471,243.079498 
	C121.649948,243.115753 121.648300,243.294159 121.593948,243.734955 
z"/>
<path fill="#76D6CC" opacity="1.000000" stroke="none" 
	d="
M52.826805,152.727783 
	C52.553852,152.805069 52.367893,152.598663 52.105492,152.185974 
	C52.295311,152.160324 52.590229,152.315109 52.826805,152.727783 
z"/>
<path fill="#173C60" opacity="1.000000" stroke="none" 
	d="
M144.103851,219.594086 
	C144.037552,219.427475 144.199539,219.244339 144.558197,219.001373 
	C144.676559,219.186707 144.535660,219.398712 144.103851,219.594086 
z"/>
<path fill="#9EDCCD" opacity="1.000000" stroke="none" 
	d="
M98.741821,20.059235 
	C98.891930,20.252689 98.758621,20.481268 98.429962,20.816343 
	C98.061470,20.594851 98.136063,20.318689 98.741821,20.059235 
z"/>
<path fill="#9EDCCD" opacity="1.000000" stroke="none" 
	d="
M97.750717,22.051624 
	C97.896400,22.253145 97.751678,22.485771 97.413040,22.832680 
	C97.343002,22.685934 97.423393,22.397856 97.750717,22.051624 
z"/>
<path fill="#9EDCCD" opacity="1.000000" stroke="none" 
	d="
M115.790802,25.735577 
	C115.505455,25.799068 115.329979,25.585800 115.104248,25.154236 
	C115.301239,25.139002 115.583466,25.313295 115.790802,25.735577 
z"/>
<path fill="#7AD4C9" opacity="1.000000" stroke="none" 
	d="
M116.857224,27.696438 
	C116.581825,27.798172 116.382668,27.616190 116.122650,27.221535 
	C116.324181,27.174309 116.614731,27.308929 116.857224,27.696438 
z"/>
<path fill="#56BABF" opacity="1.000000" stroke="none" 
	d="
M28.043648,176.284271 
	C28.259926,176.183151 28.505766,176.379440 28.842083,176.824371 
	C28.686991,176.858017 28.400539,176.694244 28.043648,176.284271 
z"/>
<path fill="#56BABF" opacity="1.000000" stroke="none" 
	d="
M27.168951,175.269562 
	C27.432077,175.197678 27.621178,175.407242 27.870119,175.837067 
	C27.684563,175.858841 27.406218,175.690063 27.168951,175.269562 
z"/>
<path fill="#7AC2B9" opacity="1.000000" stroke="none" 
	d="
M118.305161,61.021763 
	C118.141571,60.811234 118.294052,60.551609 118.671410,60.168732 
	C118.741318,60.317375 118.649635,60.626438 118.305161,61.021763 
z"/>
<path fill="#7AD4C9" opacity="1.000000" stroke="none" 
	d="
M81.991302,73.979706 
	C85.758087,70.685646 89.524879,67.391586 93.627075,64.008057 
	C93.799217,70.675354 89.098152,75.772903 82.410591,75.662766 
	C81.996956,74.877388 81.994133,74.428543 81.991302,73.979706 
z"/>
<path fill="#A0E3DB" opacity="1.000000" stroke="none" 
	d="
M54.306091,92.867188 
	C55.458611,85.114212 58.616180,82.505455 66.755402,83.233818 
	C67.056046,84.132812 67.051903,84.571091 67.047768,85.009361 
	C62.896328,87.569626 58.744884,90.129898 54.306091,92.867188 
z"/>
<path fill="#78D4C5" opacity="1.000000" stroke="none" 
	d="
M81.643112,73.992950 
	C81.994133,74.428543 81.996956,74.877388 82.001114,75.662659 
	C80.896400,77.617943 79.790352,79.236794 78.327278,80.579468 
	C77.641800,79.197830 77.313354,78.092384 76.984909,76.986931 
	C78.421585,75.993355 79.858253,74.999779 81.643112,73.992950 
z"/>
<path fill="#7AD4C9" opacity="1.000000" stroke="none" 
	d="
M76.701889,77.126251 
	C77.313354,78.092384 77.641800,79.197830 77.984604,80.651733 
	C76.904732,81.331375 75.810493,81.662560 74.355927,81.646698 
	C73.982353,80.831856 73.969124,80.364082 73.955902,79.896301 
	C74.776894,79.019394 75.597878,78.142479 76.701889,77.126251 
z"/>
<path fill="#78D4C5" opacity="1.000000" stroke="none" 
	d="
M73.634529,79.980156 
	C73.969124,80.364082 73.982353,80.831856 73.999161,81.649666 
	C72.881935,82.627716 71.761131,83.255745 70.176697,83.748100 
	C69.496368,83.365021 69.248863,83.153671 68.970558,82.978386 
	C70.418091,82.006927 71.865623,81.035469 73.634529,79.980156 
z"/>
<path fill="#7AD4C9" opacity="1.000000" stroke="none" 
	d="
M68.658401,82.989128 
	C69.248863,83.153671 69.496368,83.365021 69.859642,83.808151 
	C69.234497,84.327927 68.462791,84.651978 67.369431,84.992691 
	C67.051903,84.571091 67.056046,84.132812 67.080307,83.367134 
	C67.515701,83.026443 67.930977,83.013161 68.658401,82.989128 
z"/>
<path fill="#2B6497" opacity="1.000000" stroke="none" 
	d="
M189.808716,166.135071 
	C189.854614,166.287033 189.652435,166.532074 189.198608,166.866516 
	C189.166473,166.724991 189.371033,166.482391 189.808716,166.135071 
z"/>
<path fill="#2B6497" opacity="1.000000" stroke="none" 
	d="
M187.530075,113.000168 
	C187.842880,113.153481 187.877914,113.333641 187.937805,113.788414 
	C187.275681,114.161118 186.588654,114.259209 185.901642,114.357300 
	C186.351852,113.913872 186.802078,113.470444 187.530075,113.000168 
z"/>
<path fill="#2B6497" opacity="1.000000" stroke="none" 
	d="
M190.023529,117.333664 
	C190.354126,117.071045 190.706894,117.145012 191.303375,117.332298 
	C191.694641,118.077187 191.842194,118.708763 192.004715,119.668488 
	C191.361679,119.221184 190.703690,118.445717 190.023529,117.333664 
z"/>
<path fill="#2C638B" opacity="1.000000" stroke="none" 
	d="
M179.001877,105.244781 
	C179.251968,105.172562 179.509949,105.328255 179.895050,105.695068 
	C179.712433,105.715759 179.374954,105.571259 179.001877,105.244781 
z"/>
<path fill="#175286" opacity="1.000000" stroke="none" 
	d="
M133.622925,227.035400 
	C132.593582,228.346100 131.160065,229.645767 129.400406,230.992996 
	C128.681610,227.871017 130.269455,226.745209 133.622925,227.035400 
z"/>
<path fill="#175286" opacity="1.000000" stroke="none" 
	d="
M127.992889,234.595306 
	C127.632072,235.135925 127.367554,235.354294 126.922508,235.759094 
	C127.310043,234.400177 127.878105,232.854858 128.742828,231.182800 
	C128.722733,232.128403 128.405960,233.200729 127.992889,234.595306 
z"/>
<path fill="#175286" opacity="1.000000" stroke="none" 
	d="
M135.843414,224.918716 
	C135.561996,225.640121 135.055511,226.199066 134.297852,226.892853 
	C134.570557,226.270554 135.094452,225.513397 135.843414,224.918716 
z"/>
<path fill="#175286" opacity="1.000000" stroke="none" 
	d="
M164.780289,199.763962 
	C164.891174,199.836960 164.452469,199.941071 164.231689,199.986542 
	C164.158981,199.757874 164.378479,199.644196 164.780289,199.763962 
z"/>
<path fill="#A0E0D2" opacity="1.000000" stroke="none" 
	d="
M107.995789,14.002943 
	C107.991577,14.005947 107.752487,13.848400 107.752487,13.848400 
	C107.752487,13.848400 107.928314,13.858882 107.967133,13.925121 
	C108.005943,13.991360 108.000000,13.999938 107.995789,14.002943 
z"/>
</svg>